<svg id="clipboard-data" xmlns="http://www.w3.org/2000/svg" width="20" height="23" viewBox="0 0 20 23">
  <path id="Path_3627" data-name="Path 3627" d="M4,13.262a1.411,1.411,0,1,1,2.821,0v1.452a1.411,1.411,0,1,1-2.821,0Zm8.464-5.809a1.411,1.411,0,1,1,2.821,0v7.262a1.411,1.411,0,1,1-2.821,0Zm-4.232,2.9a1.411,1.411,0,1,1,2.821,0v4.357a1.411,1.411,0,1,1-2.821,0Z" transform="translate(0.357 2.556)" fill="#325070"/>
  <path id="Path_3628" data-name="Path 3628" d="M5.286,1.5H3.857A2.865,2.865,0,0,0,1,4.372V19.45a2.865,2.865,0,0,0,2.857,2.872H18.143A2.865,2.865,0,0,0,21,19.45V4.372A2.865,2.865,0,0,0,18.143,1.5H16.714V2.936h1.429a1.432,1.432,0,0,1,1.429,1.436V19.45a1.432,1.432,0,0,1-1.429,1.436H3.857A1.432,1.432,0,0,1,2.429,19.45V4.372A1.432,1.432,0,0,1,3.857,2.936H5.286Z" transform="translate(-1 0.679)" fill="#325070"/>
  <path id="Path_3629" data-name="Path 3629" d="M11.536,1.452a.726.726,0,0,1,.726.726V3.631a.726.726,0,0,1-.726.726H7.179a.726.726,0,0,1-.726-.726V2.179a.726.726,0,0,1,.726-.726ZM7.179,0A2.179,2.179,0,0,0,5,2.179V3.631A2.179,2.179,0,0,0,7.179,5.809h4.357a2.179,2.179,0,0,0,2.179-2.179V2.179A2.179,2.179,0,0,0,11.536,0Z" transform="translate(0.643)" fill="#325070"/>
</svg>
