<svg xmlns="http://www.w3.org/2000/svg" width="18.559" height="19.803" viewBox="0 0 18.559 19.803">
  <g id="compass" transform="translate(-0.495)">
    <path id="Path_3480" data-name="Path 3480" d="M9.774,19.8A9.273,9.273,0,0,0,12.2,1.578,1.236,1.236,0,0,0,11.011,0H8.538A1.236,1.236,0,0,0,7.349,1.578,9.273,9.273,0,0,0,9.774,19.8Zm8.037-9.273A8.037,8.037,0,1,1,9.774,2.493,8.037,8.037,0,0,1,17.811,10.529Z" transform="translate(0 0)" fill="#325070"/>
    <path id="Path_3481" data-name="Path 3481" d="M7.609,8.109l6.12-3.5-3.5,6.12-6.119,3.5,3.5-6.12Z" transform="translate(0.855 1.09)" fill="#325070"/>
  </g>
</svg>
