<svg id="person-plus" xmlns="http://www.w3.org/2000/svg" width="25" height="18.75" viewBox="0 0 25 18.75">
  <path id="Path_30923" data-name="Path 30923" d="M9.375,11.375A4.688,4.688,0,1,0,4.688,6.688,4.687,4.687,0,0,0,9.375,11.375ZM12.5,6.688A3.125,3.125,0,1,1,9.375,3.563,3.125,3.125,0,0,1,12.5,6.688Zm6.25,12.5a1.53,1.53,0,0,1-1.562,1.563H1.563A1.53,1.53,0,0,1,0,19.188c0-1.562,1.563-6.25,9.375-6.25S18.75,17.625,18.75,19.188Zm-1.562-.006a4.175,4.175,0,0,0-1.3-2.6C14.869,15.563,12.952,14.5,9.375,14.5s-5.494,1.063-6.513,2.081a4.184,4.184,0,0,0-1.3,2.6Z" transform="translate(0 -2)" fill="#325070"/>
  <path id="Path_30924" data-name="Path 30924" d="M14.906,5a.781.781,0,0,1,.781.781V8.125h2.344a.781.781,0,0,1,0,1.563H15.688v2.344a.781.781,0,0,1-1.562,0V9.688H11.781a.781.781,0,0,1,0-1.562h2.344V5.781A.781.781,0,0,1,14.906,5Z" transform="translate(6.188 -0.313)" fill="#325070" fill-rule="evenodd"/>
</svg>
