<svg xmlns="http://www.w3.org/2000/svg" width="18" height="18" viewBox="0 0 18 18">
  <g id="exclamation-diamond" transform="translate(0)">
    <path id="Path_31943" data-name="Path 31943" d="M7.819.489a1.67,1.67,0,0,1,2.362,0L17.51,7.82a1.668,1.668,0,0,1,0,2.36l-7.329,7.33a1.668,1.668,0,0,1-2.36,0L.489,10.181a1.667,1.667,0,0,1,0-2.36Zm1.575.787a.557.557,0,0,0-.787,0L1.276,8.606a.557.557,0,0,0,0,.787l7.33,7.331a.557.557,0,0,0,.787,0l7.33-7.33a.557.557,0,0,0,0-.787L9.394,1.276Z" transform="translate(0)" fill="#212121"/>
    <path id="Path_31944" data-name="Path 31944" d="M7,12.75A1.146,1.146,0,0,1,8,11.5a1.146,1.146,0,0,1,1,1.25A1.146,1.146,0,0,1,8,14,1.146,1.146,0,0,1,7,12.75Zm.1-7.505a1.243,1.243,0,0,1,.42-1.078.755.755,0,0,1,.959,0A1.243,1.243,0,0,1,8.9,5.245L8.55,9.628a.619.619,0,0,1-.55.631.619.619,0,0,1-.55-.631Z" transform="translate(1 0)" fill="#212121"/>
  </g>
</svg>
