<svg xmlns="http://www.w3.org/2000/svg" width="25" height="25" viewBox="0 0 25 25">
  <g id="Group_1789" data-name="Group 1789" transform="translate(4470 -20777)">
    <g id="exclamation-diamond" transform="translate(-4465 20782)">
      <path id="Path_31943" data-name="Path 31943" d="M6.516.408a1.392,1.392,0,0,1,1.969,0l6.108,6.109a1.39,1.39,0,0,1,0,1.967L8.484,14.592a1.39,1.39,0,0,1-1.967,0L.408,8.484a1.389,1.389,0,0,1,0-1.967Zm1.312.656a.464.464,0,0,0-.656,0L1.063,7.172a.464.464,0,0,0,0,.656l6.109,6.109a.464.464,0,0,0,.656,0l6.109-6.109a.464.464,0,0,0,0-.656L7.828,1.063Z" transform="translate(0 0)"/>
      <path id="Path_31944" data-name="Path 31944" d="M7,11.291a.955.955,0,0,1,.833-1.042.955.955,0,0,1,.833,1.042.955.955,0,0,1-.833,1.042A.955.955,0,0,1,7,11.291Zm.082-6.254a1.036,1.036,0,0,1,.35-.9.629.629,0,0,1,.8,0,1.036,1.036,0,0,1,.35.9L8.292,8.689a.515.515,0,0,1-.458.526.515.515,0,0,1-.458-.526Z" transform="translate(-0.333 -0.666)"/>
    </g>
    <rect id="Rectangle_1040" data-name="Rectangle 1040" width="25" height="25" rx="4" transform="translate(-4470 20777)" fill="rgba(206,212,218,0.38)"/>
  </g>
</svg>
