<svg xmlns="http://www.w3.org/2000/svg" width="18" height="18" viewBox="0 0 18 18"><path d="M9,16.875A7.875,7.875,0,1,1,16.875,9,7.875,7.875,0,0,1,9,16.875ZM9,18A9,9,0,1,0,0,9,9,9,0,0,0,9,18Z"/><path d="M9,14.833A5.833,5.833,0,1,1,14.833,9,5.833,5.833,0,0,1,9,14.833ZM9,16A7,7,0,1,0,2,9a7,7,0,0,0,7,7Z" transform="translate(0)"/><path d="M8,11a3,3,0,1,1,3-3A3,3,0,0,1,8,11Zm0,1A4,4,0,1,0,4,8,4,4,0,0,0,8,12Z" transform="translate(1 1)"/><path d="M9.5,8A1.5,1.5,0,1,1,8,6.5,1.5,1.5,0,0,1,9.5,8Z" transform="translate(1 1)"/></svg>