<svg id="calendar-event" xmlns="http://www.w3.org/2000/svg" width="18" height="18" viewBox="0 0 18 18">
  <path id="Path_30516" data-name="Path 30516" d="M11,6.5a.5.5,0,0,1,.5-.5h1a.5.5,0,0,1,.5.5v1a.5.5,0,0,1-.5.5h-1a.5.5,0,0,1-.5-.5Z" transform="translate(1.571 0.857)" fill="#212121"/>
  <path id="Path_30517" data-name="Path 30517" d="M3.938,0A.562.562,0,0,1,4.5.563v.563h9V.563a.563.563,0,0,1,1.125,0v.563H15.75A2.25,2.25,0,0,1,18,3.375V15.75A2.25,2.25,0,0,1,15.75,18H2.25A2.25,2.25,0,0,1,0,15.75V3.375a2.25,2.25,0,0,1,2.25-2.25H3.375V.563A.562.562,0,0,1,3.938,0ZM1.125,4.5V15.75A1.125,1.125,0,0,0,2.25,16.875h13.5a1.125,1.125,0,0,0,1.125-1.125V4.5Z" fill="#212121"/>
</svg>
