<svg xmlns="http://www.w3.org/2000/svg" width="32.272" height="20.413" viewBox="0 0 32.272 20.413"><defs><style>.a{fill:#fff;}</style></defs><g transform="translate(-1084.865 -1647.027)"><path class="a" d="M3.8,142.543l.493.059c.223.023.246.211.246.328v.575H2.272v-.575c0-.117.023-.305.246-.328l.493-.059v-.493H.078v.493l.493.059c.223.023.246.211.246.328v1.9c0,.117-.023.305-.246.328l-.493.059v.493H3.011v-.493l-.493-.059c-.223-.023-.246-.211-.246-.328v-.575H4.524v.575c0,.117-.023.305-.246.328l-.493.059v.493H6.718v-.493l-.493-.059c-.223-.023-.246-.211-.246-.328v-1.9c0-.117.023-.305.246-.328l.493-.059v-.493H3.785v.493Z" transform="translate(1084.787 1521.611)"/><path class="a" d="M170.738,142.05h-3.613v.493l.434.047a.257.257,0,0,1,.258.293v1.936c0,.117-.023.305-.246.328l-.493.059v.493h3.66c1.314,0,2.393-.528,2.393-1.83s-1.079-1.818-2.393-1.818m-.27,2.956h-1.232v-2.252h1.232c.727,0,.974.34.974,1.126s-.246,1.126-.974,1.126" transform="translate(937.378 1521.611)"/><path class="a" d="M222.618,145.159a.471.471,0,0,1-.375-.282l-1.689-2.581a.4.4,0,0,0-.387-.246H217.4v.493l.669.07a.191.191,0,0,1,.117.305l-1.255,2.029a.359.359,0,0,1-.258.2l-.493.059v.493h2.335v-.493l-.4-.035c-.176-.023-.27-.141-.176-.282l.188-.305h2.252l.164.246c.152.223-.035.317-.2.328l-.411.047v.493H223.1v-.493Zm-4.106-1.22.692-1.126.739,1.126Z" transform="translate(894.038 1521.611)"/><path class="a" d="M114.46,142.454l.493.059c.223.023.246.211.246.328v1.83l-1.936-2.557c-.082-.117-.164-.152-.375-.152h-2.51v.493l.493.059c.223.023.246.211.246.328v1.9c0,.117-.023.305-.246.328l-.493.059v.493h2.346v-.493l-.493-.059c-.223-.023-.246-.211-.246-.328v-1.83l1.936,2.546a.382.382,0,0,0,.375.153h1.783v-2.78c0-.117.023-.3.246-.328l.493-.059v-.493h-2.335l-.023.5Z" transform="translate(987.427 1521.701)"/><path class="a" d="M60.97,140.95c-2.381,0-2.991,1.044-2.991,1.947s.61,1.959,2.991,1.959,2.991-1.044,2.991-1.947-.61-1.959-2.991-1.959m0,3.214c-.927,0-1.3-.387-1.3-1.255s.387-1.255,1.3-1.255,1.3.387,1.3,1.255-.375,1.255-1.3,1.255" transform="translate(1033.68 1522.584)"/><path class="a" d="M102.269,10.55c-.4,1.795-.563,2.628-.892,3.918a10.2,10.2,0,0,1-.985,2.968,1.882,1.882,0,0,1-1.384.739,8.8,8.8,0,0,1-1.572,0,1.882,1.882,0,0,1-1.384-.739,9.9,9.9,0,0,1-.974-2.968c-.328-1.3-.493-2.123-.892-3.918,0,0-.4.012-.575.023-.246.012-.434.035-.633.059,0,0,.235,3.7.34,5.267.106,1.642.305,4.423.481,6.523a7.788,7.788,0,0,0,.9.082c.587.035.856.035.856.035a13.653,13.653,0,0,1,.88-2.757,1.19,1.19,0,0,1,.95-.528,7.481,7.481,0,0,1,.845-.059h0a5.333,5.333,0,0,1,.845.059,1.19,1.19,0,0,1,.95.528,12.948,12.948,0,0,1,.88,2.757s.258,0,.845-.035c.563-.035.9-.082.9-.082.176-2.1.375-4.868.481-6.523.106-1.56.34-5.267.34-5.267-.2-.023-.4-.047-.633-.059-.176-.012-.575-.023-.575-.023" transform="translate(1002.786 1637.686)"/><path class="a" d="M80.5,3.64C80.27,1.294,78.7.8,77.325.567,76.633.449,75.4.356,74.615.32,73.923.273,72.3.25,71.811.25s-2.112.023-2.8.07c-.786.035-2.018.129-2.71.246-1.373.235-2.945.727-3.179,3.074a20.85,20.85,0,0,0-.07,2.37c.023,1.49.153,2.487.223,3.191a15.18,15.18,0,0,0,.5,2.651,2.96,2.96,0,0,0,1.044,1.619,4.918,4.918,0,0,0,2.041.774,38.215,38.215,0,0,0,4.962.27,36.348,36.348,0,0,0,4.962-.27,4.754,4.754,0,0,0,2.041-.774,2.96,2.96,0,0,0,1.044-1.619,15.382,15.382,0,0,0,.5-2.651c.07-.692.2-1.7.223-3.191-.012-.9-.035-1.736-.094-2.37m-.868,3.942a19.587,19.587,0,0,1-.54,3.813,3.139,3.139,0,0,1-.845,1.525,3.768,3.768,0,0,1-2.018.774,35.879,35.879,0,0,1-4.423.223,35.754,35.754,0,0,1-4.423-.223,3.768,3.768,0,0,1-2.018-.774,3.2,3.2,0,0,1-.845-1.525,18.7,18.7,0,0,1-.54-3.813,24.317,24.317,0,0,1,.059-3.942,2.57,2.57,0,0,1,2.464-2.487,22.965,22.965,0,0,1,2.64-.27c.751-.047,1.971-.07,2.663-.07s1.912.023,2.651.07a22.965,22.965,0,0,1,2.64.27A2.607,2.607,0,0,1,79.577,3.64a24.27,24.27,0,0,1,.059,3.942" transform="translate(1029.208 1646.777)"/></g></svg>