<svg xmlns="http://www.w3.org/2000/svg" width="29.5" height="29.5" viewBox="0 0 29.5 29.5">
  <path id="headphones" d="M16.75,4.458A12.292,12.292,0,0,0,4.458,16.75v2.458H6.917a2.458,2.458,0,0,1,2.458,2.458v7.375A2.458,2.458,0,0,1,6.917,31.5H4.458A2.458,2.458,0,0,1,2,29.042V16.75a14.75,14.75,0,0,1,29.5,0V29.042A2.458,2.458,0,0,1,29.042,31.5H26.583a2.458,2.458,0,0,1-2.458-2.458V21.667a2.458,2.458,0,0,1,2.458-2.458h2.458V16.75A12.292,12.292,0,0,0,16.75,4.458Z" transform="translate(-2 -2)" fill="#fff"/>
</svg>
