<svg xmlns="http://www.w3.org/2000/svg" width="29.999" height="40" viewBox="0 0 29.999 40">
  <path id="lightbulb" d="M2,15A15,15,0,1,1,27.434,25.775,4.866,4.866,0,0,0,26.3,27.322l-1.9,4.422a1.25,1.25,0,0,1-1.147.755,1.25,1.25,0,0,1,0,2.5,1.25,1.25,0,0,1,0,2.5l-.56,1.117A2.5,2.5,0,0,1,20.454,40h-6.91a2.5,2.5,0,0,1-2.235-1.382L10.75,37.5a1.25,1.25,0,0,1,0-2.5,1.25,1.25,0,0,1,0-2.5,1.25,1.25,0,0,1-1.15-.755L7.7,27.32a4.91,4.91,0,0,0-1.132-1.545A14.959,14.959,0,0,1,2,15ZM17,2.5A12.5,12.5,0,0,0,8.3,23.98a7.341,7.341,0,0,1,1.69,2.352L11.574,30H22.429l1.58-3.667A7.341,7.341,0,0,1,25.7,23.98,12.5,12.5,0,0,0,17,2.5Z" transform="translate(-2 0.001)" fill="#212121"/>
</svg>
