<svg xmlns="http://www.w3.org/2000/svg" width="40" height="40" viewBox="0 0 40 40">
  <g id="Group_2047" data-name="Group 2047" transform="translate(-6502 -9403)">
    <path id="Path_31949" data-name="Path 31949" d="M20,37.5A17.5,17.5,0,1,1,37.5,20,17.5,17.5,0,0,1,20,37.5ZM20,40A20,20,0,1,0,0,20,20,20,0,0,0,20,40Z" transform="translate(6502 9403)" fill="#212121"/>
    <path id="Path_31950" data-name="Path 31950" d="M6.678,5.138a1.25,1.25,0,0,1,1.3.1l8.75,6.25a1.25,1.25,0,0,1,0,2.035l-8.75,6.25A1.25,1.25,0,0,1,6,18.751V6.251a1.25,1.25,0,0,1,.678-1.112Z" transform="translate(6511 9410.499)" fill="#212121"/>
  </g>
</svg>
