<svg xmlns="http://www.w3.org/2000/svg" width="18" height="18" viewBox="0 0 18 18"><defs><style>.a{fill:#212121;}</style></defs><path class="a" d="M-247.361,143.032A9.017,9.017,0,0,0-257,152.009a8.151,8.151,0,0,0,.071,1.09.239.239,0,0,0,.4.142l.876-.876a.269.269,0,0,0,.071-.189v-.166a7.584,7.584,0,0,1,8.124-7.556,7.6,7.6,0,0,1,7.01,7.012A7.584,7.584,0,0,1-248,159.589a7.564,7.564,0,0,1-6.726-4.122l2.889-2.89,3.126,3.127a.229.229,0,0,0,.332,0l4.453-4.453v1.35a.224.224,0,0,0,.237.237h.947a.224.224,0,0,0,.237-.237v-3.529a.224.224,0,0,0-.237-.237h-3.529a.224.224,0,0,0-.237.237v.948a.224.224,0,0,0,.237.237h1.35l-3.6,3.6-3.126-3.127a.229.229,0,0,0-.332,0l-4.31,4.311a.216.216,0,0,0-.047.261A8.934,8.934,0,0,0-248,161.011a8.99,8.99,0,0,0,8.976-9.641A9.044,9.044,0,0,0-247.361,143.032Z" transform="translate(257 -143.011)"/></svg>