<svg xmlns="http://www.w3.org/2000/svg" width="15.997" height="15.998" viewBox="0 0 15.997 15.998">
  <g id="link-45deg" transform="translate(17.962 -2.464) rotate(90)">
    <path id="Path_31714" data-name="Path 31714" d="M5.717,7.006,3.734,8.988a4.335,4.335,0,0,0,6.131,6.131l2.641-2.643A4.335,4.335,0,0,0,11.31,5.5l-.847.847a1.448,1.448,0,0,0-.223.288,2.89,2.89,0,0,1,1.244,4.822L8.845,14.1a2.892,2.892,0,0,1-4.089-4.089L5.9,8.864A5.806,5.806,0,0,1,5.717,7Z" transform="translate(0 1.573)" fill="#fff"/>
    <path id="Path_31715" data-name="Path 31715" d="M6.977,5.876a4.335,4.335,0,0,0,1.2,6.976l1.12-1.121A2.89,2.89,0,0,1,8,6.9l2.64-2.641a2.892,2.892,0,1,1,4.089,4.089L13.582,9.489a5.813,5.813,0,0,1,.185,1.86l1.983-1.983A4.335,4.335,0,1,0,9.618,3.235Z" transform="translate(1.443 0)" fill="#fff"/>
  </g>
</svg>
