<svg id="_x3C_Group_x3E_" xmlns="http://www.w3.org/2000/svg" width="16" height="16" viewBox="0 0 16 16">
  <path id="Path_43" data-name="Path 43" d="M16,8.375a3.1,3.1,0,0,1-.4,1.553,2.875,2.875,0,0,1-1.081,1.106,2.964,2.964,0,0,1,.019.394,3.026,3.026,0,0,1-.847,2.159,2.713,2.713,0,0,1-2.044.894,2.676,2.676,0,0,1-1.019-.2,3.1,3.1,0,0,1-1.081,1.241,2.784,2.784,0,0,1-3.1.009,3.029,3.029,0,0,1-1.072-1.25,2.664,2.664,0,0,1-1.019.2A2.743,2.743,0,0,1,2.3,13.587a3,3,0,0,1-.856-2.159,3.341,3.341,0,0,1,.034-.394A2.9,2.9,0,0,1,.4,9.928,3.214,3.214,0,0,1,.447,6.741a2.754,2.754,0,0,1,1.2-1.1,3.09,3.09,0,0,1-.2-1.072A3,3,0,0,1,2.3,2.413a2.754,2.754,0,0,1,2.053-.894,2.676,2.676,0,0,1,1.019.2A3.1,3.1,0,0,1,6.456.475a2.754,2.754,0,0,1,3.087,0,3.123,3.123,0,0,1,1.081,1.241,2.664,2.664,0,0,1,1.019-.2,2.713,2.713,0,0,1,2.044.894,3.023,3.023,0,0,1,.847,2.159,3.073,3.073,0,0,1-.178,1.072,2.755,2.755,0,0,1,1.2,1.1A3.137,3.137,0,0,1,16,8.375ZM7.659,10.784l3.3-4.947a.574.574,0,0,0,.081-.428.524.524,0,0,0-.241-.356.609.609,0,0,0-.428-.091A.548.548,0,0,0,10,5.194L7.091,9.569,5.75,8.231a.532.532,0,0,0-.409-.169.632.632,0,0,0-.409.169.546.546,0,0,0-.159.4.556.556,0,0,0,.159.4l1.841,1.841.091.072a.573.573,0,0,0,.322.106A.524.524,0,0,0,7.659,10.784Z" transform="translate(0)" fill="#1da1f2"/>
</svg>
