<svg xmlns="http://www.w3.org/2000/svg" width="18" height="15" viewBox="0 0 18 15">
  <path id="twitter" d="M5.654,17c6.793,0,10.509-5.772,10.509-10.769,0-.162,0-.325-.007-.487A7.631,7.631,0,0,0,18,3.779a7.345,7.345,0,0,1-2.125.6A3.793,3.793,0,0,0,17.5,2.28a7.239,7.239,0,0,1-2.348.915,3.63,3.63,0,0,0-4.439-.748,3.826,3.826,0,0,0-1.857,4.2A10.405,10.405,0,0,1,1.246,2.694,3.854,3.854,0,0,0,2.392,7.749,3.667,3.667,0,0,1,.72,7.279v.052a3.771,3.771,0,0,0,2.961,3.713,3.645,3.645,0,0,1-1.664.067,3.706,3.706,0,0,0,3.45,2.627,7.294,7.294,0,0,1-4.59,1.623A6.934,6.934,0,0,1,0,15.309,10.321,10.321,0,0,0,5.654,17Z" transform="translate(0 -1.999)" fill="#212121"/>
</svg>
